<svg width="194" height="349" viewBox="0 0 194 349" fill="none" xmlns="http://www.w3.org/2000/svg">
<path d="M37 167.427C37 134.29 59.3357 92.5025 86.8882 74.0925L157.033 27.223C175.402 14.9497 190.292 22.9088 190.292 45.0002V185.888C190.292 219.025 167.956 260.812 140.404 279.222L86.8882 314.98C59.3357 333.39 37 321.452 37 288.314V167.427Z" fill="#DFD8D8"/>
<g filter="url(#filter0_d)">
<path d="M40.24 167.427C40.24 134.29 62.5757 92.5025 90.1282 74.0925L160.273 27.223C178.642 14.9497 193.532 22.9088 193.532 45.0002V185.888C193.532 219.025 171.196 260.812 143.644 279.222L90.1282 314.98C62.5757 333.39 40.24 321.452 40.24 288.314V167.427Z" fill="#F8F8F8"/>
</g>
<path d="M166.305 81.3467L89.3616 132.759C79.2208 139.534 71.0001 154.944 71.0001 167.177V260.56C71.0001 272.793 79.2208 277.216 89.3616 270.44L166.305 219.029C176.446 212.253 184.666 196.843 184.666 184.611V91.2272C184.666 78.9945 176.446 74.5709 166.305 81.3467Z" fill="url(#paint0_linear)"/>
<path d="M128.691 165.751C131.594 163.812 133.795 161.579 135.295 159.054C136.794 156.529 137.544 153.781 137.544 150.811C137.544 147.878 136.794 146.152 135.295 145.63C133.795 145.07 131.594 145.76 128.691 147.7L118.5 154.51V172.561L128.691 165.751ZM129.314 202.638C133.014 200.166 135.789 197.378 137.639 194.276C139.521 191.152 140.462 187.705 140.463 183.935C140.462 180.241 139.537 178.098 137.687 177.506C135.837 176.877 133.046 177.809 129.314 180.302L118.5 187.528V209.864L129.314 202.638ZM146.444 160.516C150.399 159.244 153.462 159.73 155.631 161.975C157.8 164.22 158.885 168.027 158.885 173.397C158.885 181.623 156.556 189.31 151.899 196.459C147.241 203.608 140.159 210.358 130.653 216.71L100.077 237.14V151.853L127.735 133.373C137.655 126.744 144.833 123.738 149.267 124.355C153.733 124.951 155.966 129.19 155.966 137.073C155.966 141.225 155.152 145.31 153.526 149.329C151.899 153.311 149.538 157.04 146.444 160.516Z" fill="white"/>
<defs>
<filter id="filter0_d" x="0.240021" y="0.456055" width="193.292" height="342.175" filterUnits="userSpaceOnUse" color-interpolation-filters="sRGB">
<feFlood flood-opacity="0" result="BackgroundImageFix"/>
<feColorMatrix in="SourceAlpha" type="matrix" values="0 0 0 0 0 0 0 0 0 0 0 0 0 0 0 0 0 0 127 0"/>
<feOffset dx="-20" dy="-1"/>
<feGaussianBlur stdDeviation="10"/>
<feColorMatrix type="matrix" values="0 0 0 0 0 0 0 0 0 0 0 0 0 0 0 0 0 0 0.1 0"/>
<feBlend mode="normal" in2="BackgroundImageFix" result="effect1_dropShadow"/>
<feBlend mode="normal" in="SourceGraphic" in2="effect1_dropShadow" result="shape"/>
</filter>
<linearGradient id="paint0_linear" x1="77.5578" y1="271.188" x2="176.152" y2="80.6322" gradientUnits="userSpaceOnUse">
<stop stop-color="#070135"/>
<stop offset="1" stop-color="#612D50"/>
</linearGradient>
</defs>
</svg>
