<svg width="195" height="349" viewBox="0 0 195 349" fill="none" xmlns="http://www.w3.org/2000/svg">
<path d="M38 167.349C38 134.212 60.3357 92.4244 87.8882 74.0144L158.033 27.1449C176.402 14.8716 191.292 22.8307 191.292 44.9221V185.81C191.292 218.947 168.956 260.734 141.404 279.144L87.8882 314.902C60.3357 333.312 38 321.373 38 288.236V167.349Z" fill="#DFD8D8"/>
<g filter="url(#filter0_d)">
<path d="M40.7599 167.349C40.7599 134.212 63.0956 92.4244 90.6481 74.0144L160.793 27.1449C179.162 14.8716 194.052 22.8307 194.052 44.9221V185.81C194.052 218.947 171.716 260.734 144.164 279.144L90.6482 314.902C63.0957 333.312 40.7599 321.373 40.7599 288.236V167.349Z" fill="#FBFBFB"/>
</g>
<path d="M181.453 86.6147L171.995 219.324L129.481 261.012L87.0839 274.486L77.6359 154.034L181.453 86.6147Z" fill="#264DE4"/>
<path d="M163.898 216.523L171.98 103.117L129.544 130.675V250.209L163.898 216.523Z" fill="#2965F1"/>
<path d="M99.2952 197.268L100.46 212.036L129.544 193.149V177.624L99.2952 197.268Z" fill="#EBEBEB"/>
<path d="M129.544 146.2L129.499 146.229L96.9546 167.364L98.1361 182.123L129.544 161.726V146.2Z" fill="#EBEBEB"/>
<path d="M129.544 234.097V217.944L129.487 217.999L115.013 222.731L114.088 210.949L107.054 215.517L101.041 219.422L102.862 242.616L129.485 234.156L129.544 234.097Z" fill="#EBEBEB"/>
<path d="M102.069 103.767L117.81 93.544V101.407L108.651 107.355V115.219L117.81 109.271V117.134L102.069 127.357V103.767Z" fill="black"/>
<path d="M120.958 91.5L136.7 81.2774V88.1152L127.541 94.0629V95.4305L136.7 89.4828V105.21L120.958 115.432V108.253L130.117 102.305V100.937L120.958 106.885V91.5Z" fill="black"/>
<path d="M139.848 79.2314L155.589 69.0089V75.8467L146.431 81.7943V83.1619L155.589 77.2142V92.9412L139.848 103.164V95.984L149.006 90.0364V88.6688L139.848 94.6165V79.2314Z" fill="black"/>
<path d="M145.504 182.785L143.995 203.9L129.499 217.987V234.14L156.144 208.016L156.339 205.266L159.393 162.409L159.71 158.034L162.057 125.087L129.499 146.229V161.755L147.813 149.862L146.631 166.528L129.499 177.653V193.178L145.504 182.785Z" fill="white"/>
<defs>
<filter id="filter0_d" x="0.759949" y="0.37793" width="193.292" height="342.175" filterUnits="userSpaceOnUse" color-interpolation-filters="sRGB">
<feFlood flood-opacity="0" result="BackgroundImageFix"/>
<feColorMatrix in="SourceAlpha" type="matrix" values="0 0 0 0 0 0 0 0 0 0 0 0 0 0 0 0 0 0 127 0"/>
<feOffset dx="-20" dy="-1"/>
<feGaussianBlur stdDeviation="10"/>
<feColorMatrix type="matrix" values="0 0 0 0 0 0 0 0 0 0 0 0 0 0 0 0 0 0 0.1 0"/>
<feBlend mode="normal" in2="BackgroundImageFix" result="effect1_dropShadow"/>
<feBlend mode="normal" in="SourceGraphic" in2="effect1_dropShadow" result="shape"/>
</filter>
</defs>
</svg>
