<svg width="614" height="387" viewBox="0 0 614 387" fill="none" xmlns="http://www.w3.org/2000/svg">
<g filter="url(#filter0_d)">
<path d="M20 37.5C20 28.1112 27.6112 20.5 37 20.5H577C586.389 20.5 594 28.1112 594 37.5V349.5C594 358.889 586.389 366.5 577 366.5H37C27.6112 366.5 20 358.889 20 349.5V37.5Z" fill="white"/>
<path d="M37 23H577C585.008 23 591.5 29.4919 591.5 37.5V349.5C591.5 357.508 585.008 364 577 364H37C28.9919 364 22.5 357.508 22.5 349.5V37.5C22.5 29.4919 28.9919 23 37 23Z" stroke="black" stroke-width="5"/>
</g>
<defs>
<filter id="filter0_d" x="0" y="0.5" width="614" height="386" filterUnits="userSpaceOnUse" color-interpolation-filters="sRGB">
<feFlood flood-opacity="0" result="BackgroundImageFix"/>
<feColorMatrix in="SourceAlpha" type="matrix" values="0 0 0 0 0 0 0 0 0 0 0 0 0 0 0 0 0 0 127 0"/>
<feOffset/>
<feGaussianBlur stdDeviation="10"/>
<feColorMatrix type="matrix" values="0 0 0 0 0 0 0 0 0 0 0 0 0 0 0 0 0 0 0.25 0"/>
<feBlend mode="normal" in2="BackgroundImageFix" result="effect1_dropShadow"/>
<feBlend mode="normal" in="SourceGraphic" in2="effect1_dropShadow" result="shape"/>
</filter>
</defs>
</svg>
