<?xml version="1.0" encoding="iso-8859-1"?>
<!-- Generator: Adobe Illustrator 19.0.0, SVG Export Plug-In . SVG Version: 6.00 Build 0)  -->
<svg xmlns="http://www.w3.org/2000/svg" xmlns:xlink="http://www.w3.org/1999/xlink" version="1.1" id="Layer_1" x="0px" y="0px" viewBox="0 0 512.042 512.042" style="enable-background:new 0 0 512.042 512.042;" xml:space="preserve" width="512" height="512">
<path d="M492.385,100.404c-12.363-11.891-29.409-18.439-47.996-18.439c-11.344,0-22.198,3.147-31.777,9.043  c-11.01-21.358-33.124-35.986-58.571-35.986c-12.812,0-24.775,3.718-34.909,10.124c-11.437-19.784-32.737-33.124-57.091-33.124  c-23.097,0-43.448,11.999-55.245,30.113c-10.493-7.014-23.104-11.113-36.66-11.113c-36.393,0-66,29.512-66,65.788v13.547  c-20.166,3.102-35.303,13.461-45.094,30.925l-48.868,91.187c-14.335,25.259-13.532,51.14,2.468,79.128  c0.448,0.782,60.011,91.254,99.219,125.048c17.491,15.075,39.847,23.377,62.952,23.377h200.642  c75.314,0,136.586-60.785,136.586-135.5V148.395C512.042,129.639,505.061,112.596,492.385,100.404z M472.042,344.521  c0,52.659-43.329,95.5-96.586,95.5H174.813c-13.522,0-26.604-4.857-36.836-13.676c-29.784-25.671-78.749-96.547-90.895-115.107  c-10.058-17.844-8.092-28.58-2.037-39.172l48.97-91.37c2.288-4.037,5.184-7.261,10.122-9.226v107.552h40V116.809  c0-14.219,11.664-25.788,26-25.788c13.615,0,24.812,10.436,25.905,23.665v61.335h40v-33.274h0.095v-25.938  c0-1.174-0.034-2.341-0.095-3.5V98.373c0-14.53,11.664-26.352,26-26.352s26,11.821,26,26.352v77.648h40v-54.35  c0-14.695,11.664-26.65,26-26.65s26,11.955,26,26.65v54.35h40v-25.933c0-13.302,9.999-28.124,24.347-28.124  c16.798,0,27.653,10.375,27.653,26.43V344.521z"/>















</svg>
