<svg width="361" height="361" viewBox="0 0 361 361" fill="none" xmlns="http://www.w3.org/2000/svg">
<path d="M326.308 63.1606H33.2834V358.749H326.308V63.1606Z" stroke="#C6C6C6" stroke-width="3" stroke-linecap="round" stroke-linejoin="round"/>
<path d="M180.5 359.155C279.168 359.155 359.155 279.168 359.155 180.5C359.155 81.8317 279.168 1.84521 180.5 1.84521C81.8317 1.84521 1.84528 81.8317 1.84528 180.5C1.84528 279.168 81.8317 359.155 180.5 359.155Z" stroke="#C6C6C6" stroke-width="3" stroke-linecap="round" stroke-linejoin="round"/>
<path d="M189.578 79.8123C189.578 91.0825 185.352 104.077 176.409 104.077C172.047 104.077 168.785 100.916 166.598 96.3513C164.412 91.7869 163.245 85.5545 163.245 79.8461C163.245 68.576 169.14 63.1606 176.409 63.1606C183.678 63.1606 189.578 68.5252 189.578 79.8123Z" stroke="#F2205F" stroke-width="3" stroke-linecap="round" stroke-linejoin="round"/>
<path d="M200.955 111.859C218.943 102.893 232.281 113.809 232.281 113.809C234.676 111.233 253.931 116.936 253.931 116.936C267.94 110.568 290.79 116.023 292.182 114.682C293.574 113.341 295.929 113.921 295.929 113.921C296.419 114.485 301.113 112.479 306.636 111.425C312.536 110.298 319.281 110.067 320.16 109.977C321.907 109.813 325.102 113.008 325.102 113.008C325.102 113.008 325.727 114.135 324.493 114.276C324.493 114.276 321.394 125.282 312.496 124.217C311.635 123.692 310.641 123.429 309.633 123.46C308.625 123.491 307.649 123.815 306.822 124.391C303.807 126.392 299.158 126.583 296.408 125.242C296.408 125.242 267.714 131.835 251.581 127.124C251.581 127.124 232.146 130.201 218.937 128.973C218.937 128.973 207.796 131.914 207.069 142.457" stroke="#F2205F" stroke-width="3" stroke-linecap="round" stroke-linejoin="round"/>
<path d="M153.294 141.314C152.567 130.77 141.426 127.829 141.426 127.829C128.218 129.057 108.782 125.981 108.782 125.981C92.649 130.691 63.9552 124.098 63.9552 124.098C61.2053 125.44 56.5563 125.225 53.5415 123.248C52.7146 122.671 51.7378 122.348 50.7302 122.317C49.7227 122.286 48.7278 122.548 47.867 123.073C38.9692 124.149 35.8699 113.138 35.8699 113.138C34.6358 112.975 35.2613 111.87 35.2613 111.87C35.2613 111.87 38.4564 108.675 40.2033 108.839C41.1049 108.929 47.8501 109.154 53.7557 110.287C59.2555 111.341 63.9495 113.33 64.4623 112.783C64.4623 112.783 66.8178 112.22 68.204 113.544C69.5903 114.868 92.4349 109.436 106.455 115.798C106.455 115.798 125.71 110.095 128.105 112.67C128.105 112.67 141.443 101.755 159.43 110.721" stroke="#F2205F" stroke-width="3" stroke-linecap="round" stroke-linejoin="round"/>
<path d="M183.999 101.102C185.228 112.811 198.335 108.557 198.335 108.557C210.388 97.715 225.276 102.51 225.276 102.51C226.82 99.3323 246.047 96.1203 246.047 96.1203C257.171 84.095 285.16 80.9055 286.102 79.215C287.043 77.5245 289.483 77.3611 289.483 77.3611C290.807 78.1274 308.439 66.0909 310.056 65.4316C311.674 64.7723 315.736 66.8291 315.736 66.8291C315.736 66.8291 316.677 67.6913 315.517 68.221C315.517 68.221 317.771 71.602 313.116 75.2535C313.116 75.2535 311.178 75.9579 308.856 78.7698C306.534 81.5817 296.91 86.9351 293.878 86.473C293.878 86.473 268.948 105.238 251.942 105.632C251.942 105.632 232.061 117.81 218.909 120.622C218.909 120.622 207.227 125.13 203.626 133.622" stroke="#F2205F" stroke-width="3" stroke-linecap="round" stroke-linejoin="round"/>
<path d="M151.293 133.594C147.878 125.09 136.811 120.593 136.811 120.593C124.341 117.776 105.491 105.604 105.491 105.604C89.375 105.232 65.7415 86.4447 65.7415 86.4447C62.8676 86.9068 53.7444 81.5591 51.5411 78.7416C49.3378 75.924 47.5007 75.2253 47.5007 75.2253C43.0828 71.5456 45.2467 68.1927 45.2467 68.1927C44.1535 67.663 45.0438 66.8008 45.0438 66.8008C45.0438 66.8008 48.8982 64.7328 50.4253 65.4033C51.9525 66.0739 68.6718 78.0992 69.9284 77.3328C69.9284 77.3328 72.2613 77.4906 73.1516 79.1868C74.042 80.8829 100.578 84.0724 111.121 96.092C111.121 96.092 129.345 99.304 130.81 102.482C130.81 102.482 144.943 97.6867 156.359 108.529C156.359 108.529 169.027 111.239 170.053 101.998" stroke="#F2205F" stroke-width="3" stroke-linecap="round" stroke-linejoin="round"/>
<path d="M178.184 217.99C177.829 225.073 179.942 255.745 181.266 259.205C183.188 264.277 186.693 282.078 186.693 282.078C190.125 288.248 190.226 292.863 190.226 292.863C183.549 298.808 186.282 318.221 186.282 318.221C190.463 331.278 186.107 353.412 186.107 353.412C185.543 359.273 193.309 357.301 193.309 357.301C196.357 355.903 204.427 358.264 204.427 358.264C204.427 358.264 217.151 356.754 218.362 355.447C219.574 354.139 218.588 353.356 218.588 353.356L204.827 348.972C199.192 347.36 199.124 340.728 199.124 340.728C200.336 334.529 204.196 321.569 205.159 311.859C205.673 305.647 205.168 299.392 203.666 293.342C205.756 288.017 207.086 277.446 203.39 274.116C206.692 253.401 203.79 231.852 203.79 231.852C203.79 231.852 204.094 220.932 202.55 213.071L203.79 203.373C204.404 193.179 204.201 188.102 203.373 178.195C202.995 173.642 202.883 169.714 202.883 169.714C202.139 164.784 204.613 153.846 204.613 153.846C207.785 151.057 207.103 142.429 207.103 142.429" stroke="#F2205F" stroke-width="3" stroke-linecap="round" stroke-linejoin="round"/>
<path d="M153.294 141.313C153.294 141.313 151.26 147.783 154.421 150.572C154.421 150.572 157.802 160.845 158.016 165.032C158.016 165.032 155.892 173.016 155.508 177.57C154.686 187.476 151.53 191.657 152.127 201.874L151.293 212.879C149.744 220.74 148.11 231.886 148.11 231.886C148.11 231.886 145.207 253.412 148.51 274.149C144.813 277.48 146.137 288.051 148.228 293.376C146.729 299.427 146.227 305.681 146.74 311.893C147.681 321.614 151.558 334.546 152.77 340.762C152.77 340.762 152.696 347.394 147.073 349.006L133.312 353.39C133.312 353.39 132.32 354.162 133.532 355.48C134.743 356.799 147.467 358.298 147.467 358.298C147.467 358.298 155.508 355.931 158.557 357.329C158.557 357.329 166.328 359.301 165.753 353.441C165.753 353.441 161.397 331.306 165.578 318.249C165.578 318.249 168.317 298.837 161.634 292.892C161.634 292.892 161.735 288.276 165.167 282.106C165.167 282.106 168.672 264.299 170.594 259.233C171.918 255.751 178.528 225.102 178.173 218.018" stroke="#F2205F" stroke-width="3" stroke-linecap="round" stroke-linejoin="round"/>
<path d="M203.964 187.009C206.844 188.773 207.441 204.945 207.441 204.945C211.735 210.208 224.955 245.484 229.582 261.505C233.999 265.094 236.732 269.845 237.285 274.781C237.285 274.781 243.974 285.702 247.253 294.904C250.533 304.106 252.522 317.444 254.06 323.592C254.06 323.592 256.946 329.571 262.722 328.63L277.052 326.753C277.052 326.753 278.286 327.018 277.75 328.731C277.215 330.444 266.322 337.218 266.322 337.218C266.322 337.218 258.027 338.48 255.869 341.055C255.869 341.055 249.671 346.127 247.698 340.593C247.698 340.593 242.238 318.706 232.901 308.665C232.901 308.665 217.562 290.249 221.067 282.033C221.067 282.033 221.422 277.226 215.697 273.096C215.697 273.096 205.694 261.116 200.944 253.937C198.887 250.826 180.9 224.561 178.173 218.002" stroke="#F2205F" stroke-width="3" stroke-linecap="round" stroke-linejoin="round"/>
<path d="M178.184 217.99C175.462 224.55 157.43 248.127 155.373 251.237C150.623 258.428 140.626 270.397 140.626 270.397C134.895 274.527 135.256 279.334 135.256 279.334C138.767 287.55 123.422 305.96 123.422 305.96C114.091 316.001 108.63 337.905 108.63 337.905C106.652 343.45 100.459 338.361 100.459 338.361C98.301 335.792 90.0118 334.529 90.0118 334.529C90.0118 334.529 79.1192 327.767 78.5839 326.043C78.0485 324.319 79.277 324.065 79.277 324.065L93.607 325.936C99.383 326.877 102.268 320.898 102.268 320.898C103.807 314.762 105.79 301.406 109.075 292.21C112.361 283.014 119.044 272.087 119.044 272.087C119.607 267.151 122.335 262.406 126.747 258.811C131.373 242.79 146.729 207.43 151.029 202.167C151.029 202.167 151.62 186 154.505 184.23" stroke="#F2205F" stroke-width="3" stroke-linecap="round" stroke-linejoin="round"/>
<path d="M151.293 128.24C151.293 128.24 159.577 147.754 179.367 139.127" stroke="#F2205F" stroke-width="3" stroke-linecap="round" stroke-linejoin="round"/>
<path d="M207.441 128.24C207.441 128.24 199.152 147.754 179.367 139.127" stroke="#F2205F" stroke-width="3" stroke-linecap="round" stroke-linejoin="round"/>
</svg>
