<svg width="142" height="40" viewBox="0 0 142 40" fill="none" xmlns="http://www.w3.org/2000/svg">
<g clip-path="url(#clip0)">
<path fill-rule="evenodd" clip-rule="evenodd" d="M90.2926 3.45277C90.331 4.29271 89.9669 5.10092 89.3111 5.62959C88.6955 6.15408 87.912 6.44268 87.1018 6.4436C86.629 5.76773 86.3768 4.96298 86.3776 4.13881C86.3634 3.42713 86.5079 2.72116 86.7994 2.07175C86.9907 1.63718 87.2405 1.23089 87.542 0.86437C87.7375 0.624705 88.0298 0.484019 88.3397 0.480255C88.8075 0.480255 89.2569 0.846059 89.6778 1.62355C90.0237 2.17673 90.2342 2.80336 90.2926 3.45277ZM51.2744 11.4558L57.316 11.5838C57.6643 11.5838 57.8477 11.7943 57.8935 12.2058C57.8708 12.4439 57.8153 12.6779 57.7285 12.9009C57.6185 13.2302 57.5176 13.5687 57.426 13.9253C57.2242 14.6478 56.8758 15.0046 56.3075 15.0046L51.2927 14.7759H50.8618C50.7062 14.764 50.5499 14.764 50.3943 14.7759C49.4116 18.0061 48.8356 21.3458 48.6799 24.7179C48.6799 26.0167 47.4146 26.6569 44.8844 26.6569C44.3878 26.6887 43.9564 26.3192 43.9126 25.8246C43.8013 25.0891 43.7523 24.3457 43.766 23.6021C43.8996 20.8104 44.3769 18.0458 45.1869 15.3704C44.1364 15.5272 43.0769 15.6158 42.015 15.6357C41.7306 15.6357 41.584 15.5259 41.584 15.3064C41.6661 14.6526 42.0313 14.0676 42.5833 13.7058C43.6029 12.9997 44.7526 12.5023 45.9662 12.2424C46.6102 9.89826 47.4128 7.60031 48.3681 5.36439C46.3592 5.39786 44.4331 6.16975 42.9591 7.53206C42.6108 7.88881 42.3174 8.16316 42.0974 8.35521C41.9485 8.52306 41.7429 8.63048 41.5198 8.65703C41.3548 8.65703 41.1989 8.51991 41.0431 8.25461C40.8736 7.93081 40.7945 7.56756 40.8139 7.20277C40.8384 5.51382 41.9813 4.14186 44.2427 3.08696C46.872 1.96178 49.7165 1.42487 52.5762 1.51378L62.4774 1.67848C63.1008 1.67848 63.3941 1.90716 63.3941 2.37356C63.3507 2.6229 63.2605 2.86185 63.1284 3.07781C62.9448 3.43334 62.7916 3.80352 62.6699 4.18458C62.4035 4.95169 61.6468 5.43865 60.8364 5.36439H59.7913H55.3998H52.8604C52.4757 7.42951 51.9457 9.46501 51.2744 11.4558ZM31.1877 19.1753C31.5636 18.7453 31.8478 18.5351 32.0495 18.5351C32.352 18.5351 32.5078 18.8369 32.5078 19.4588C32.4869 20.1715 32.3184 20.8721 32.0128 21.5168C31.6158 22.3487 31.0545 23.0922 30.3626 23.7027C28.474 25.4588 25.8704 26.3734 22.57 26.3734C19.9755 26.3734 18.1419 25.4313 17.2252 23.538C17.1995 23.4919 17.1796 23.4373 17.159 23.3804L17.1583 23.3785L17.1579 23.3774C17.142 23.3336 17.1257 23.2886 17.106 23.2453C16.5674 23.6958 15.8834 23.9363 15.1808 23.9221C14.2929 23.9663 13.4137 23.7294 12.6688 23.2453C12.2828 24.1893 11.6176 24.9933 10.7618 25.5503C9.59702 26.2275 8.2573 26.5458 6.91136 26.4648C5.38525 26.5053 3.88689 26.053 2.63925 25.1752C1.16362 24.05 0.35677 22.2579 0.493913 20.4099C0.558354 17.0663 1.33328 13.7743 2.76752 10.7516C1.14485 10.0565 0.328934 9.37042 0.328934 8.71196C0.328934 8.33691 0.475661 8.17231 0.759836 8.19062C1.22255 8.20293 1.67915 8.29896 2.1075 8.47413C2.6161 8.65652 3.13683 8.80331 3.66603 8.91317C5.46285 5.51077 7.51652 3.28818 9.83592 2.23634C10.5599 1.89383 11.3457 1.70096 12.1463 1.66932C13.4059 1.58581 14.6506 1.98121 15.6299 2.77599C16.4063 3.44931 16.8457 4.42974 16.831 5.45584C16.831 7.34916 15.7767 8.80341 13.7323 9.80951C11.5734 10.7589 9.25121 11.2837 6.89311 11.3552C5.84868 13.9735 5.32255 16.7689 5.34376 19.5868C5.34376 21.7545 5.82962 23.0167 6.86558 23.3459C7.36694 23.5858 7.95028 23.5858 8.45164 23.3459C8.79848 23.1143 9.08207 22.7999 9.27677 22.4313C9.49779 21.9048 9.60404 21.3374 9.58842 20.7668C9.61615 20.0798 9.39121 19.4063 8.95585 18.8734C8.53413 18.3613 8.12158 17.8857 7.7182 17.4466C7.88288 16.7865 8.17562 16.1651 8.57991 15.6174C9.30417 14.6753 9.90934 14.1997 10.4135 14.1997C10.8754 14.1851 11.3207 14.3721 11.6328 14.7119C11.9747 15.0971 12.2393 15.5442 12.412 16.0289C12.6241 16.6118 12.7867 17.2115 12.898 17.8216C13.0172 18.4343 13.1546 19.0015 13.3106 19.532C13.4373 19.9968 13.6318 20.4407 13.8881 20.849C14.0786 21.1747 14.4269 21.3762 14.8048 21.3795C15.1961 21.373 15.5687 21.2118 15.8408 20.9313C16.15 20.6387 16.4266 20.3136 16.6659 19.9618L16.7851 19.7788C16.8972 18.811 17.1218 17.8596 17.4544 16.9436C17.9143 15.6766 18.5939 14.5002 19.4621 13.468C20.2162 12.5393 21.1521 11.7739 22.2125 11.218C23.2583 10.6798 24.4186 10.4006 25.5953 10.4039C26.5949 10.352 27.5772 10.6788 28.3458 11.3186C28.9926 11.9078 29.3477 12.7503 29.3175 13.6235C29.3493 14.4534 29.0971 15.2695 28.6024 15.9375C28.1044 16.566 27.4798 17.0833 26.7688 17.4558C25.9665 17.8812 25.1329 18.245 24.2752 18.5441C23.3585 18.8673 22.46 19.2241 21.5799 19.6143V20.4374C21.5609 21.1386 21.9457 21.7888 22.57 22.1113C23.2468 22.4528 23.9935 22.6343 24.7519 22.6418C26.6073 22.5875 28.3796 21.8627 29.7392 20.6021C30.2553 20.1613 30.7394 19.6844 31.1877 19.1753ZM108.711 12.1692C109.118 11.8401 109.346 11.3382 109.325 10.8155C109.294 10.4057 109.161 10.0098 108.94 9.66309C108.683 9.19667 108.399 8.96801 108.087 8.96801C107.892 8.96876 107.709 9.06009 107.592 9.21501C107.402 9.43676 107.247 9.68667 107.134 9.95576C106.957 10.3558 106.872 10.7902 106.887 11.2271C106.89 11.7398 107.046 12.2396 107.335 12.6631C107.838 12.6673 108.326 12.4922 108.711 12.1692ZM99.6162 9.06859C100.22 8.59742 100.561 7.86632 100.532 7.10216C100.489 6.50788 100.3 5.93334 99.9829 5.42837C99.607 4.76076 99.2035 4.43147 98.745 4.43147C98.4626 4.42994 98.1962 4.55811 98.0208 4.77906C97.751 5.10571 97.5279 5.46916 97.3609 5.85826C97.1103 6.43485 96.9917 7.05964 97.0126 7.68759C97.0134 8.42947 97.2406 9.15359 97.6633 9.76384C98.3758 9.76567 99.0657 9.51984 99.6162 9.06859ZM133.719 12.3023C134.734 11.2135 136.215 9.62759 138.405 9.77284C142.43 10.2485 142.191 14.8308 142.09 15.3064C141.473 19.7565 138.975 22.7709 136.429 25.844C134.82 27.7859 133.192 29.7514 132.006 32.1173C130.915 34.2938 130.827 36.1223 130.763 37.4575C130.695 38.8605 130.654 39.7188 129.503 39.8641C128.11 40.0288 129.017 34.0928 130.328 30.8825C130.784 29.7672 132.107 27.8448 133.593 25.689C136.382 21.6394 139.74 16.7654 138.974 14.8673C138.056 12.5991 135.609 14.8582 134.802 15.9375C133.995 17.0168 132.015 19.1935 128.972 14.8308C128.22 13.7607 126.322 14.1539 126.478 16.0564C126.752 19.169 128.951 21.7768 131.979 22.5776C133.033 22.8613 132.657 24.2514 131.979 25.2667C129.824 25.0014 127.128 22.3399 126.909 21.846L126.88 21.8833L126.879 21.8839C126.6 22.2458 124.454 25.0324 122.976 25.6965C122.149 26.0865 121.249 26.2985 120.336 26.3185C117.209 26.3459 115.064 25.166 113.918 22.7972C113.862 22.6782 113.813 22.5561 113.771 22.4313C113.36 23.0613 112.871 23.636 112.313 24.1417C111.015 25.499 109.225 26.2771 107.344 26.3002C105.594 26.3002 104.549 24.974 104.2 22.3673C103.779 23.0141 103.281 23.6069 102.715 24.1325C101.405 25.473 99.622 26.2508 97.746 26.3002C96.1631 26.3002 95.3712 24.8642 95.3712 21.9923C95.403 20.9839 95.5224 19.9801 95.7287 18.9923C95.9317 18.0717 96.0545 17.1353 96.0954 16.1936C96.0954 15.471 95.6744 15.1052 94.84 15.1052C94.2711 15.1052 93.6296 15.6631 92.9238 16.7698C92.2305 17.87 91.7285 19.079 91.4386 20.346V20.4099C91.4411 21.1911 91.5589 21.9677 91.787 22.7148C91.9657 23.248 92.0802 23.8008 92.1261 24.3612C92.1261 25.102 91.1538 25.8429 89.3203 26.5654C89.0789 26.666 88.8217 26.7218 88.5594 26.7301C88.0265 26.7424 87.5554 26.3859 87.4226 25.8703C87.1786 25.1147 87.0667 24.3225 87.0926 23.5288C87.0926 22.6143 87.1202 21.6538 87.1753 20.785C87.2304 19.9161 87.2856 19.1113 87.3407 18.3795C87.3549 18.1866 87.3674 17.9992 87.38 17.8178V17.8142C87.4142 17.3093 87.4451 16.8502 87.5052 16.4405C87.5879 15.8826 87.5879 15.4253 87.5879 15.0778C87.5879 14.3277 87.2396 13.9528 86.5614 13.9528C85.8831 13.9528 85.1038 14.7484 84.1866 16.3399C83.4402 17.4763 82.978 18.7748 82.839 20.1264C82.8111 21.0013 82.9068 21.8758 83.1233 22.724C83.3085 23.2559 83.4255 23.8091 83.4716 24.3703C83.4716 25.1112 82.4999 25.8521 80.6663 26.5746C80.4248 26.6751 80.1669 26.7308 79.9054 26.7392C79.372 26.7515 78.9007 26.3951 78.7686 25.8795C78.521 25.0243 78.4157 24.1345 78.4568 23.2453V22.5959C78.0712 23.1438 77.6219 23.6443 77.1184 24.0868C76.382 24.7369 75.5543 25.2762 74.6613 25.6873C73.837 26.0834 72.936 26.2956 72.0211 26.3093C70.8567 26.3093 70.0775 25.2941 69.6832 23.2453C69.1215 24.1802 68.3533 24.9748 67.4371 25.5686C66.3281 26.2181 65.055 26.5357 63.7701 26.4832C62.3731 26.543 61.0143 26.0193 60.0205 25.0381C59.0918 24.105 58.5908 22.8308 58.6361 21.5168C58.452 18.1283 59.8335 14.8423 62.3857 12.5991C63.2412 11.8149 64.2447 11.2086 65.3377 10.8155C66.2734 10.5301 67.2472 10.3883 68.2256 10.3948C69.0812 10.361 69.9319 10.5403 70.701 10.9162C71.0126 10.3217 71.3609 10.0015 71.7552 10.0015C72.5943 10.0286 73.3872 10.3912 73.9554 11.0076C74.5405 11.4753 74.9135 12.1571 74.9914 12.9009C74.5936 13.7941 74.1405 14.6616 73.6346 15.4985C73.4356 16.904 73.3498 18.3232 73.3779 19.7423C73.3779 21.5716 73.6071 22.4862 74.0654 22.4862C74.64 22.4801 76.0274 21.3398 78.2276 19.0654C78.3565 18.9141 78.4976 18.7734 78.6494 18.6448C78.69 17.9124 78.7695 17.1828 78.8878 16.4588C79.2177 14.4192 79.6762 12.6723 82.7473 10.4223C87.613 7.1689 89.9735 9.78134 90.8164 10.7135L90.8189 10.7163L90.8297 10.7283L90.8431 10.7429L90.8564 10.7583C90.884 10.7888 90.9099 10.8173 90.9341 10.843C91.5406 11.7036 91.9766 12.6723 92.218 13.6966V14.0625C93.359 12.4907 95.1858 11.5591 97.132 11.5564C98.1352 11.4715 99.13 11.8023 99.8818 12.471C100.488 13.0687 100.82 13.8895 100.799 14.7393C100.806 15.5573 100.741 16.3744 100.606 17.1814C100.469 17.9039 100.322 18.5808 100.157 19.221L99.7172 20.9131C99.6003 21.287 99.5327 21.6743 99.5151 22.0654C99.4692 22.3685 99.6646 22.6557 99.9645 22.724C101.98 23.223 103.199 21.2118 103.8 20.2202C103.937 19.9938 104.042 19.8206 104.118 19.7423C104.246 17.5107 105.85 14.3735 106.868 14.3735C107.354 14.3735 107.766 14.8491 108.124 15.7088C108.413 16.3542 108.456 17.0832 108.243 17.7576C108.186 18.0193 108.074 18.3908 107.943 18.8225L107.942 18.8253C107.328 20.8537 106.315 24.2013 108.839 23.6661C109.446 23.4818 110.017 23.194 110.526 22.8154C111.588 21.9908 112.336 20.7528 112.833 19.931L112.834 19.93C113.053 19.5673 113.223 19.2858 113.349 19.157C113.377 17.9656 113.481 16.7772 113.661 15.5991C114.068 12.8439 114.926 10.1743 116.201 7.69665C116.781 6.56007 117.502 5.50009 118.346 4.54123C119.755 2.7647 121.888 1.71103 124.158 1.66932C124.975 1.62609 125.775 1.90543 126.386 2.44671C126.957 3.04088 127.25 3.84807 127.193 4.66931C127.176 5.70181 126.878 6.71021 126.331 7.58699C125.691 8.65775 124.957 9.67076 124.14 10.6143C123.251 11.657 122.26 12.7455 121.188 13.8888C120.068 15.0753 119.009 16.3177 118.016 17.6113V18.9375C117.933 19.9048 118.217 20.8679 118.814 21.6357C119.271 22.1738 119.94 22.4876 120.647 22.4953C122.674 22.4263 124.542 21.3837 125.661 19.6966L125.717 19.6326C125.736 19.591 125.642 19.3814 125.495 19.0522C124.738 17.3563 122.561 12.4843 127.083 10.9985C128.855 10.4255 130.26 11.6319 131.272 12.5004C131.778 12.935 132.186 13.285 132.492 13.285C132.802 13.285 133.2 12.8585 133.719 12.3023ZM24.1652 13.3308C24.8436 13.3308 25.1828 13.6052 25.1828 14.1539C25.1257 14.8331 24.7478 15.4444 24.1652 15.8003C23.8535 16.0198 23.496 16.2485 23.0925 16.4863C22.68 16.7332 22.2492 17.0076 21.7907 17.3093C22.2492 14.657 23.0407 13.3308 24.1652 13.3308ZM12.3295 4.89788C11.5099 5.04955 10.7683 5.47934 10.2301 6.11431C9.23434 7.11111 8.39933 8.25583 7.75482 9.50759C10.1568 9.13259 11.7519 8.35521 12.6688 7.30337C12.9646 6.94968 13.1383 6.51022 13.1638 6.05032C13.1455 5.28199 12.8613 4.89788 12.3295 4.89788ZM120.537 7.26676C121.454 5.69357 122.324 4.89788 123.095 4.89788C123.443 4.89788 123.618 5.14486 123.618 5.63875C123.616 6.14371 123.48 6.63931 123.223 7.0747C122.902 7.61842 122.537 8.13539 122.132 8.62041L120.5 10.6327C119.877 11.4008 119.19 12.3521 118.438 13.4954C118.765 11.3123 119.476 9.20392 120.537 7.26676ZM68.7024 20.8033C69.0396 20.2512 69.2958 19.6537 69.4632 19.0289C69.442 16.8985 69.6791 14.7733 70.1691 12.6997C68.3861 13.0512 66.7579 13.9498 65.5119 15.2698C64.1853 16.6474 63.4714 18.5006 63.5317 20.4099C63.5317 22.1021 64.1184 22.9435 65.3653 22.9435C66.7832 22.883 68.0585 22.0652 68.7024 20.8033Z" fill="#F11F60"/>
</g>
<defs>
<clipPath id="clip0">
<rect width="142" height="40" fill="white"/>
</clipPath>
</defs>
</svg>
