<svg width="812" height="889" viewBox="0 0 812 889" fill="none" xmlns="http://www.w3.org/2000/svg">
<path fill-rule="evenodd" clip-rule="evenodd" d="M411.884 1.62782C507.517 12.161 574.468 93.4278 646.81 156.866C711.953 213.991 795.586 265.425 810.121 350.846C824.26 433.942 755.142 503.946 718.808 580C688.236 643.993 664.807 709.316 614.828 759.629C556.874 817.971 494.098 890.512 411.884 888.976C329.801 887.442 271.336 811.276 214.375 752.147C166.431 702.377 144.293 638.817 112.026 577.704C71.0476 500.091 -4.23585 434.13 0.186538 346.472C5.02327 250.601 62.513 162.249 136.095 100.615C212.852 36.322 312.365 -9.33327 411.884 1.62782Z" fill="#FDF0E6"/>
</svg>
