<svg width="281" height="616" viewBox="0 0 281 616" fill="none" xmlns="http://www.w3.org/2000/svg">
<path fill-rule="evenodd" clip-rule="evenodd" d="M321.467 0.364666C385.9 6.09721 473.099 18.8381 523 60C568.284 97.3538 567.039 173.096 599.434 229.651C631.829 286.206 650.202 358.47 625.173 418.648C600.542 477.869 528.64 496.24 474.35 530.393C424.537 561.731 379.556 600.266 321.467 609.708C255.639 620.407 185.38 620.125 127.642 586.745C66.6215 551.468 8.48191 494.262 0.617711 424.218C-7.02114 356.182 58.1217 305.501 89.2168 244.505C114.006 195.879 126.53 142.983 164.149 103.438C208.443 56.8763 257.455 -5.33049 321.467 0.364666Z" fill="#FDF0E7"/>
</svg>
