<svg width="703" height="658" viewBox="0 0 703 658" fill="none" xmlns="http://www.w3.org/2000/svg">
<g opacity="0.9" filter="url(#filter0_d)">
<path fill-rule="evenodd" clip-rule="evenodd" d="M335.409 13.9473C398.877 22.8287 420.33 105.245 473.888 140.439C531.955 178.596 623.324 166.087 658.297 226.126C693.634 286.79 683.484 373.56 643.162 431.033C604.758 485.772 517.802 468.404 462.229 505.591C410.374 540.29 397.773 635.028 335.409 636.967C273.547 638.891 248.513 555.305 202.727 513.66C163.828 478.279 116.467 455.502 87.5866 411.561C50.2393 354.737 -2.30107 292.628 14.0789 226.632C30.4754 160.569 108.826 134.865 165.586 97.2962C219.488 61.6189 271.393 4.98905 335.409 13.9473Z" fill="url(#paint0_linear)"/>
</g>
<defs>
<filter id="filter0_d" x="0" y="0" width="702.885" height="658" filterUnits="userSpaceOnUse" color-interpolation-filters="sRGB">
<feFlood flood-opacity="0" result="BackgroundImageFix"/>
<feColorMatrix in="SourceAlpha" type="matrix" values="0 0 0 0 0 0 0 0 0 0 0 0 0 0 0 0 0 0 127 0"/>
<feOffset dx="6" dy="4"/>
<feGaussianBlur stdDeviation="8.5"/>
<feColorMatrix type="matrix" values="0 0 0 0 0.464445 0 0 0 0 0.813997 0 0 0 0 0.715809 0 0 0 1 0"/>
<feBlend mode="normal" in2="BackgroundImageFix" result="effect1_dropShadow"/>
<feBlend mode="normal" in="SourceGraphic" in2="effect1_dropShadow" result="shape"/>
</filter>
<linearGradient id="paint0_linear" x1="11" y1="325" x2="679.885" y2="325" gradientUnits="userSpaceOnUse">
<stop stop-color="#5433FF"/>
<stop offset="0.5" stop-color="#20BDFF"/>
<stop offset="1" stop-color="#A5FECB"/>
</linearGradient>
</defs>
</svg>
