<svg width="678" height="588" viewBox="0 0 678 588" fill="none" xmlns="http://www.w3.org/2000/svg">
<g filter="url(#filter0_d)">
<path fill-rule="evenodd" clip-rule="evenodd" d="M326.016 56.605C368.544 38.1078 423.193 18.9106 462.193 44.0054C501.66 69.4008 483.292 134.952 508.899 174.282C536.693 216.973 596.754 232.603 615.754 279.869C637.185 333.185 666.874 416.848 619.438 449.277C559.755 490.077 478.265 404.828 408.011 421.888C365.742 432.152 364.705 500.648 326.016 520.528C279.978 544.184 224.933 554.778 174.854 541.69C120.267 527.424 41.9096 501.885 39.0737 445.536C35.5608 375.734 158.759 349.699 161.678 279.869C164.395 214.857 19.6688 178.133 52.5949 122.01C85.65 65.6661 180.973 153.885 244.505 138.688C282.657 129.561 290.044 72.2511 326.016 56.605Z" fill="url(#paint0_linear)" fill-opacity="0.9"/>
</g>
<defs>
<filter id="filter0_d" x="0" y="0" width="677.812" height="587.363" filterUnits="userSpaceOnUse" color-interpolation-filters="sRGB">
<feFlood flood-opacity="0" result="BackgroundImageFix"/>
<feColorMatrix in="SourceAlpha" type="matrix" values="0 0 0 0 0 0 0 0 0 0 0 0 0 0 0 0 0 0 127 0"/>
<feOffset dx="-3" dy="4"/>
<feGaussianBlur stdDeviation="18"/>
<feColorMatrix type="matrix" values="0 0 0 0 0.8875 0 0 0 0 0.751955 0 0 0 0 0.188594 0 0 0 0.31 0"/>
<feBlend mode="normal" in2="BackgroundImageFix" result="effect1_dropShadow"/>
<feBlend mode="normal" in="SourceGraphic" in2="effect1_dropShadow" result="shape"/>
</filter>
<linearGradient id="paint0_linear" x1="39" y1="289.681" x2="644.812" y2="289.681" gradientUnits="userSpaceOnUse">
<stop stop-color="#FFE259"/>
<stop offset="1" stop-color="#FFA751"/>
</linearGradient>
</defs>
</svg>
