<svg width="194" height="349" viewBox="0 0 194 349" fill="none" xmlns="http://www.w3.org/2000/svg">
<path d="M37 167.349C37 134.212 59.3357 92.4244 86.8882 74.0144L157.033 27.1449C175.402 14.8716 190.292 22.8307 190.292 44.9221V185.81C190.292 218.947 167.956 260.734 140.404 279.144L86.8882 314.902C59.3357 333.312 37 321.373 37 288.236V167.349Z" fill="#DFD8D8"/>
<g filter="url(#filter0_d)">
<path d="M40 167.349C40 134.212 62.3357 92.4244 89.8882 74.0144L160.033 27.1449C178.402 14.8716 193.292 22.8307 193.292 44.9221V185.81C193.292 218.947 170.956 260.734 143.404 279.144L89.8882 314.902C62.3357 333.312 40 321.373 40 288.236V167.349Z" fill="#F8F8F8"/>
</g>
<path d="M85.7576 112.998L92.0585 108.788V117.114L97.8662 113.234V104.907L104.167 100.697V125.896L97.8662 130.106V121.706L92.1133 125.55V133.95L85.7576 138.197V112.998ZM112.495 103.532L106.934 107.248V98.8485L124.385 87.1884V95.5879L118.796 99.322V116.121L112.495 120.331V103.532ZM127.151 85.3396L133.754 80.9281L137.808 87.0933L141.863 75.5099L148.465 71.0985V96.297L142.164 100.507V88.0174L137.753 100.021L133.343 93.9115V106.401L127.151 110.538V85.3396ZM151.588 69.0118L157.889 64.8017V81.6737L166.819 75.7064V84.0328L151.588 94.2103" fill="black"/>
<path d="M85.5385 285.152L76.4981 155.924L175.887 89.5142L166.847 230.75L126.11 273.015" fill="#E44D26"/>
<path d="M126.193 261.456V133.82L166.819 106.674L159.067 227.256" fill="#F16529"/>
<path d="M94.9624 171.232L126.193 150.365V166.945L108.605 178.697L109.756 194.909L126.193 183.927V200.47L98.3593 219.067L94.9624 171.232ZM98.9072 227.028L111.399 218.681L112.276 231.352L126.193 227.02V244.33L100.661 251.895" fill="#EBEBEB"/>
<path d="M157.313 129.571L126.138 150.401V166.981L156.163 146.919L157.313 129.571ZM155.04 164.651L126.138 183.963V200.543L141.479 190.292L140.027 212.809L126.138 227.056V244.293L151.615 217.848" fill="white"/>
<defs>
<filter id="filter0_d" x="0" y="0.37793" width="193.292" height="342.175" filterUnits="userSpaceOnUse" color-interpolation-filters="sRGB">
<feFlood flood-opacity="0" result="BackgroundImageFix"/>
<feColorMatrix in="SourceAlpha" type="matrix" values="0 0 0 0 0 0 0 0 0 0 0 0 0 0 0 0 0 0 127 0"/>
<feOffset dx="-20" dy="-1"/>
<feGaussianBlur stdDeviation="10"/>
<feColorMatrix type="matrix" values="0 0 0 0 0 0 0 0 0 0 0 0 0 0 0 0 0 0 0.1 0"/>
<feBlend mode="normal" in2="BackgroundImageFix" result="effect1_dropShadow"/>
<feBlend mode="normal" in="SourceGraphic" in2="effect1_dropShadow" result="shape"/>
</filter>
</defs>
</svg>
