<svg width="359" height="359" viewBox="0 0 359 359" fill="none" xmlns="http://www.w3.org/2000/svg">
<g clip-path="url(#clip0)">
<path d="M325.308 62.1606H32.2834V357.749H325.308V62.1606Z" stroke="#C6C6C6" stroke-width="3" stroke-linecap="round" stroke-linejoin="round"/>
<path d="M179.5 358.155C278.168 358.155 358.155 278.168 358.155 179.5C358.155 80.8317 278.168 0.845215 179.5 0.845215C80.8317 0.845215 0.845276 80.8317 0.845276 179.5C0.845276 278.168 80.8317 358.155 179.5 358.155Z" stroke="#C6C6C6" stroke-width="3" stroke-linecap="round" stroke-linejoin="round"/>
<path d="M188.578 78.8123C188.578 90.0825 184.352 103.077 175.409 103.077C171.047 103.077 167.785 99.9157 165.598 95.3513C163.412 90.7869 162.245 84.5545 162.245 78.8461C162.245 67.576 168.14 62.1606 175.409 62.1606C182.678 62.1606 188.578 67.5252 188.578 78.8123Z" stroke="#F2205F" stroke-width="3" stroke-linecap="round" stroke-linejoin="round"/>
<path d="M199.955 110.859C217.943 101.894 231.281 112.809 231.281 112.809C233.676 110.234 252.931 115.936 252.931 115.936C266.94 109.569 289.79 115.023 291.182 113.682C292.574 112.341 294.929 112.922 294.929 112.922C295.419 113.485 300.113 111.479 305.636 110.425C311.536 109.298 318.281 109.067 319.16 108.977C320.907 108.814 324.102 112.009 324.102 112.009C324.102 112.009 324.727 113.136 323.493 113.277C323.493 113.277 320.394 124.282 311.496 123.217C310.635 122.692 309.641 122.43 308.633 122.461C307.625 122.492 306.649 122.815 305.822 123.392C302.807 125.392 298.158 125.584 295.408 124.242C295.408 124.242 266.714 130.836 250.581 126.125C250.581 126.125 231.146 129.201 217.937 127.973C217.937 127.973 206.796 130.914 206.069 141.458" stroke="#F2205F" stroke-width="3" stroke-linecap="round" stroke-linejoin="round"/>
<path d="M152.294 140.314C151.567 129.77 140.426 126.829 140.426 126.829C127.218 128.057 107.782 124.981 107.782 124.981C91.649 129.691 62.9552 123.098 62.9552 123.098C60.2053 124.44 55.5563 124.225 52.5415 122.248C51.7146 121.671 50.7378 121.348 49.7302 121.317C48.7227 121.286 47.7278 121.548 46.867 122.073C37.9692 123.149 34.8699 112.138 34.8699 112.138C33.6358 111.975 34.2613 110.87 34.2613 110.87C34.2613 110.87 37.4564 107.675 39.2033 107.839C40.1049 107.929 46.8501 108.154 52.7557 109.287C58.2555 110.341 62.9495 112.33 63.4623 111.783C63.4623 111.783 65.8178 111.22 67.204 112.544C68.5903 113.868 91.4349 108.436 105.455 114.798C105.455 114.798 124.71 109.095 127.105 111.67C127.105 111.67 140.443 100.755 158.43 109.721" stroke="#F2205F" stroke-width="3" stroke-linecap="round" stroke-linejoin="round"/>
<path d="M182.999 100.102C184.228 111.811 197.335 107.557 197.335 107.557C209.388 96.715 224.276 101.51 224.276 101.51C225.82 98.3323 245.047 95.1203 245.047 95.1203C256.171 83.095 284.16 79.9055 285.102 78.215C286.043 76.5245 288.483 76.3611 288.483 76.3611C289.807 77.1274 307.439 65.0909 309.056 64.4316C310.674 63.7723 314.736 65.8291 314.736 65.8291C314.736 65.8291 315.677 66.6913 314.517 67.221C314.517 67.221 316.771 70.602 312.116 74.2535C312.116 74.2535 310.178 74.9579 307.856 77.7698C305.534 80.5817 295.91 85.9351 292.878 85.473C292.878 85.473 267.948 104.238 250.942 104.632C250.942 104.632 231.061 116.81 217.909 119.622C217.909 119.622 206.227 124.13 202.626 132.622" stroke="#F2205F" stroke-width="3" stroke-linecap="round" stroke-linejoin="round"/>
<path d="M150.293 132.594C146.878 124.09 135.811 119.594 135.811 119.594C123.341 116.776 104.491 104.604 104.491 104.604C88.375 104.232 64.7415 85.445 64.7415 85.445C61.8676 85.9071 52.7444 80.5594 50.5411 77.7418C48.3378 74.9243 46.5007 74.2255 46.5007 74.2255C42.0828 70.5458 44.2467 67.1929 44.2467 67.1929C43.1535 66.6632 44.0438 65.8011 44.0438 65.8011C44.0438 65.8011 47.8982 63.733 49.4253 64.4036C50.9525 65.0742 67.6718 77.0994 68.9284 76.3331C68.9284 76.3331 71.2613 76.4908 72.1516 78.187C73.042 79.8832 99.5776 83.0726 110.121 95.0923C110.121 95.0923 128.345 98.3042 129.81 101.482C129.81 101.482 143.943 96.687 155.359 107.529C155.359 107.529 168.027 110.239 169.053 100.998" stroke="#F2205F" stroke-width="3" stroke-linecap="round" stroke-linejoin="round"/>
<path d="M177.184 216.99C176.829 224.074 178.942 254.745 180.266 258.205C182.188 263.277 185.693 281.078 185.693 281.078C189.125 287.249 189.226 291.864 189.226 291.864C182.549 297.809 185.282 317.222 185.282 317.222C189.463 330.278 185.107 352.413 185.107 352.413C184.543 358.273 192.309 356.301 192.309 356.301C195.357 354.903 203.427 357.264 203.427 357.264C203.427 357.264 216.151 355.754 217.362 354.447C218.574 353.14 217.588 352.356 217.588 352.356L203.827 347.972C198.192 346.361 198.124 339.728 198.124 339.728C199.336 333.53 203.196 320.569 204.159 310.86C204.673 304.647 204.168 298.393 202.666 292.343C204.756 287.018 206.086 276.446 202.39 273.116C205.692 252.401 202.79 230.853 202.79 230.853C202.79 230.853 203.094 219.932 201.55 212.071L202.79 202.373C203.404 192.179 203.201 187.102 202.373 177.195C201.995 172.642 201.883 168.715 201.883 168.715C201.139 163.784 203.613 152.846 203.613 152.846C206.785 150.057 206.103 141.429 206.103 141.429" stroke="#F2205F" stroke-width="3" stroke-linecap="round" stroke-linejoin="round"/>
<path d="M152.294 140.314C152.294 140.314 150.26 146.783 153.421 149.572C153.421 149.572 156.802 159.845 157.016 164.032C157.016 164.032 154.892 172.017 154.508 176.57C153.686 186.476 150.53 190.658 151.127 200.874L150.293 211.879C148.744 219.74 147.11 230.886 147.11 230.886C147.11 230.886 144.207 252.412 147.51 273.15C143.813 276.48 145.137 287.051 147.228 292.376C145.729 298.427 145.227 304.681 145.74 310.893C146.681 320.614 150.558 333.546 151.77 339.762C151.77 339.762 151.696 346.394 146.073 348.006L132.312 352.39C132.312 352.39 131.32 353.162 132.532 354.481C133.743 355.799 146.467 357.298 146.467 357.298C146.467 357.298 154.508 354.932 157.557 356.329C157.557 356.329 165.328 358.301 164.753 352.441C164.753 352.441 160.397 330.306 164.578 317.25C164.578 317.25 167.317 297.837 160.634 291.892C160.634 291.892 160.735 287.277 164.167 281.106C164.167 281.106 167.672 263.299 169.594 258.234C170.918 254.751 177.528 224.102 177.173 217.018" stroke="#F2205F" stroke-width="3" stroke-linecap="round" stroke-linejoin="round"/>
<path d="M202.964 186.009C205.844 187.773 206.441 203.945 206.441 203.945C210.735 209.208 223.955 244.484 228.582 260.505C232.999 264.094 235.732 268.845 236.285 273.781C236.285 273.781 242.974 284.702 246.253 293.904C249.533 303.106 251.522 316.444 253.06 322.592C253.06 322.592 255.946 328.571 261.722 327.63L276.052 325.753C276.052 325.753 277.286 326.018 276.75 327.731C276.215 329.444 265.322 336.218 265.322 336.218C265.322 336.218 257.027 337.48 254.869 340.055C254.869 340.055 248.671 345.127 246.698 339.593C246.698 339.593 241.238 317.706 231.901 307.665C231.901 307.665 216.562 289.249 220.067 281.033C220.067 281.033 220.422 276.226 214.697 272.096C214.697 272.096 204.694 260.116 199.944 252.937C197.887 249.826 179.9 223.561 177.173 217.002" stroke="#F2205F" stroke-width="3" stroke-linecap="round" stroke-linejoin="round"/>
<path d="M177.184 216.99C174.462 223.55 156.43 247.127 154.373 250.237C149.623 257.428 139.626 269.397 139.626 269.397C133.895 273.527 134.256 278.334 134.256 278.334C137.767 286.55 122.422 304.96 122.422 304.96C113.091 315.001 107.63 336.905 107.63 336.905C105.652 342.45 99.4593 337.361 99.4593 337.361C97.301 334.792 89.0118 333.529 89.0118 333.529C89.0118 333.529 78.1192 326.767 77.5839 325.043C77.0485 323.319 78.277 323.065 78.277 323.065L92.607 324.936C98.383 325.877 101.268 319.898 101.268 319.898C102.807 313.762 104.79 300.406 108.075 291.21C111.361 282.014 118.044 271.087 118.044 271.087C118.607 266.151 121.335 261.406 125.747 257.811C130.373 241.79 145.729 206.43 150.029 201.167C150.029 201.167 150.62 185 153.505 183.23" stroke="#F2205F" stroke-width="3" stroke-linecap="round" stroke-linejoin="round"/>
<path d="M150.293 127.24C150.293 127.24 158.577 146.754 178.367 138.127" stroke="#F2205F" stroke-width="3" stroke-linecap="round" stroke-linejoin="round"/>
<path d="M206.441 127.24C206.441 127.24 198.152 146.754 178.367 138.127" stroke="#F2205F" stroke-width="3" stroke-linecap="round" stroke-linejoin="round"/>
<rect x="160" y="204" width="11" height="11" fill="#FDF4F4"/>
<rect x="182" y="204" width="10" height="11" fill="#FFF2F2"/>
<rect x="171" y="204" width="11" height="11" fill="#FDF4F4"/>
<rect x="160" y="215" width="11" height="10" fill="#FDE9E9"/>
<rect x="171" y="215" width="11" height="10" fill="#EFE4E4"/>
<rect x="182" y="215" width="10" height="10" fill="#F7E2E2"/>
<rect x="160" y="225" width="11" height="11" fill="#FCD5D5"/>
<rect x="171" y="225" width="11" height="11" fill="#EDD1D1"/>
<rect x="182" y="225" width="10" height="11" fill="#F6D2D2"/>
</g>
<defs>
<clipPath id="clip0">
<rect width="359" height="359" fill="white"/>
</clipPath>
</defs>
</svg>
