<svg width="64" height="64" viewBox="0 0 64 64" fill="none" xmlns="http://www.w3.org/2000/svg">
<path fill-rule="evenodd" clip-rule="evenodd" d="M58.4243 52.7394C58.3755 52.6868 58.3248 52.6362 58.2724 52.5872L52.7612 47.0707V17.1895C52.7612 17.1767 52.7577 17.1649 52.7542 17.1529C52.7513 17.143 52.7483 17.133 52.7473 17.1223C52.7421 17.0293 52.7239 16.9373 52.6929 16.8493C52.6819 16.8153 52.6691 16.7817 52.6545 16.749C52.6027 16.633 52.5304 16.5272 52.4412 16.4365L36.3279 0.315718C36.2356 0.225055 36.1271 0.152659 36.0079 0.102395C35.9779 0.0897288 35.9473 0.0787961 35.9162 0.0693299C35.8231 0.0363982 35.7258 0.0169325 35.6271 0.0117327C35.617 0.0117327 35.6074 0.00879956 35.5978 0.00586637C35.5882 0.00293319 35.5786 0 35.5685 0H14.3631C13.7741 0 13.2965 0.477576 13.2965 1.06661V8.53291H10.0967C9.50764 8.53291 9.03006 9.01048 9.03006 9.59952V13.866H5.83022C5.24119 13.866 4.76361 14.3435 4.76361 14.9326V62.9334C4.76361 63.5224 5.24119 64 5.83022 64H42.0951C42.6841 64 43.1617 63.5224 43.1617 62.9334V58.6669H46.3615C46.9506 58.6669 47.4281 58.1894 47.4281 57.6003V53.3339H50.4445L53.9814 56.8708C55.1223 58.0976 57.0417 58.1672 58.2685 57.0265C59.4954 55.8857 59.5651 53.9661 58.4243 52.7394ZM36.6404 3.64462L42.8801 9.88431L49.1198 16.1229H36.6404V3.64462ZM41.0285 61.8668H6.89684V16.0024H9.03006V57.6003C9.03006 58.1894 9.50764 58.6669 10.0967 58.6669H41.0285V61.8668ZM45.2949 56.5337H11.1633V10.6693H13.2965V52.2673C13.2965 52.8563 13.7741 53.3339 14.3631 53.3339H45.2949V56.5337ZM15.4297 51.2006V2.13643H34.5072V17.1895C34.5072 17.7786 34.9848 18.2562 35.5738 18.2562H50.628V44.9375L46.4874 40.7969C50.2487 34.1676 47.9237 25.7443 41.2943 21.983C34.6649 18.2218 26.2417 20.5467 22.4805 27.1761C18.7192 33.8055 21.0441 42.2287 27.6735 45.99C32.3064 48.6185 38.0383 48.3462 42.4012 45.2905L48.3113 51.2006H15.4297ZM46.1482 34.0282C46.1406 40.4458 40.9398 45.6467 34.5221 45.6543C28.1012 45.6543 22.896 40.449 22.896 34.0282C22.896 27.6073 28.1012 22.4021 34.5221 22.4021C40.9431 22.4021 46.1482 27.6073 46.1482 34.0282ZM56.7647 55.3632C56.5953 55.5327 56.3654 55.6276 56.1258 55.6271C55.8863 55.6284 55.6561 55.5331 55.4876 55.3627L44.19 44.063L45.4636 42.7895L50.6281 47.954V48.0009H50.675L56.7643 54.0902C57.1159 54.4415 57.1162 55.0115 56.7647 55.3632ZM29.2957 30.935H39.9619V33.0682H29.2957V30.935ZM29.2957 35.2014H35.6954V37.3347H29.2957V35.2014ZM24.3893 34.0282C24.3893 28.4319 28.9259 23.8953 34.5221 23.8953C40.1157 23.9017 44.6485 28.4346 44.6549 34.0282C44.6549 39.6244 40.1184 44.161 34.5221 44.161C28.9259 44.161 24.3893 39.6244 24.3893 34.0282ZM26.5225 34.0282C26.5225 38.4462 30.1041 42.0278 34.5221 42.0278C38.9383 42.0231 42.517 38.4442 42.5217 34.0282C42.5217 29.6101 38.9402 26.0286 34.5221 26.0286C30.1041 26.0286 26.5225 29.6101 26.5225 34.0282Z" fill="#F11F60"/>
</svg>
