<svg width="62" height="62" viewBox="0 0 62 62" fill="none" xmlns="http://www.w3.org/2000/svg">
<path fill-rule="evenodd" clip-rule="evenodd" d="M62 0.508194H45.7377V2.54098H62V0.508194ZM58.9508 29.5628V26.9344H60.9836V32.0164C60.9836 32.5777 60.5285 33.0328 59.9672 33.0328H54.8853V31H57.5136L42.0787 15.5671L31.0945 23.6891C30.6895 23.9865 30.1279 23.9433 29.7732 23.5874L8.42896 2.24318L9.86613 0.806L30.5934 21.5313L41.5776 13.4093C41.9826 13.1119 42.5442 13.1551 42.8989 13.5109L58.9508 29.5628ZM10.1639 8.63934H2.0328C1.47149 8.63934 1.0164 9.09443 1.0164 9.65574V56.4098C1.0164 56.9711 1.47149 57.4262 2.0328 57.4262H10.1639C10.7252 57.4262 11.1803 56.9711 11.1803 56.4098V9.65574C11.1803 9.09443 10.7252 8.63934 10.1639 8.63934ZM9.14755 55.3935H3.04919V10.6721H9.14755V55.3935ZM14.2295 22.8689H22.3607C22.922 22.8689 23.3771 23.3239 23.3771 23.8852V56.4098C23.3771 56.9711 22.922 57.4262 22.3607 57.4262H14.2295C13.6682 57.4262 13.2131 56.9711 13.2131 56.4098V23.8852C13.2131 23.3239 13.6682 22.8689 14.2295 22.8689ZM15.2459 55.3934H21.3443V24.9016H15.2459V55.3934ZM38.6229 35.0656H46.7541C47.3154 35.0656 47.7705 35.5207 47.7705 36.082V56.4098C47.7705 56.9711 47.3154 57.4262 46.7541 57.4262H38.6229C38.0616 57.4262 37.6066 56.9711 37.6066 56.4098V36.082C37.6066 35.5207 38.0616 35.0656 38.6229 35.0656ZM39.6393 55.3934H45.7377V37.0984H39.6393V55.3934ZM59.9672 47.2623C59.9672 46.701 59.5121 46.2459 58.9508 46.2459H50.8197C50.2584 46.2459 49.8033 46.701 49.8033 47.2623V56.4098C49.8033 56.9711 50.2584 57.4262 50.8197 57.4262H58.9508C59.5121 57.4262 59.9672 56.9711 59.9672 56.4098V47.2623ZM57.9344 48.2787V55.3934H51.8361V48.2787H57.9344ZM60.9836 59.459H0V61.4918H60.9836V59.459ZM34.5574 40.1475H26.4262C25.8649 40.1475 25.4098 40.6026 25.4098 41.1639V56.4098C25.4098 56.9711 25.8649 57.4262 26.4262 57.4262H34.5574C35.1187 57.4262 35.5738 56.9711 35.5738 56.4098V41.1639C35.5738 40.6026 35.1187 40.1475 34.5574 40.1475ZM33.541 55.3934H27.4426V42.1803H33.541V55.3934ZM45.7377 3.55737H62V5.59016H45.7377V3.55737ZM62 6.60655H45.7377V8.63934H62V6.60655ZM45.7377 9.65574H53.8688V11.6885H45.7377V9.65574Z" fill="#F11F60"/>
</svg>
