<svg width="68" height="68" viewBox="0 0 68 68" fill="none" xmlns="http://www.w3.org/2000/svg">
<path fill-rule="evenodd" clip-rule="evenodd" d="M63.4553 45.1694L65.722 61.0361C65.7297 61.0895 65.7335 61.1433 65.7335 61.1972C65.7333 61.8231 65.2259 62.3305 64.6 62.3304C64.5462 62.3316 64.4925 62.329 64.4391 62.3224L48.5724 60.0558C48.3273 60.0213 48.1004 59.9076 47.926 59.7319C47.4851 59.2877 47.4878 58.57 47.9321 58.1291L50.5308 55.5304L37.7434 42.726C37.5701 42.5528 37.4575 42.3282 37.4227 42.0856L35.156 26.219C35.1522 26.1971 35.1535 26.1763 35.1547 26.1552L35.1547 26.155C35.1554 26.1444 35.156 26.1336 35.156 26.1226C35.1532 26.0755 35.1532 26.0281 35.156 25.981C35.1624 25.8907 35.1799 25.8018 35.2081 25.7158C35.2193 25.6741 35.2334 25.6332 35.2501 25.5934C35.3025 25.4734 35.3753 25.3633 35.4654 25.2681L35.4733 25.2568L39.1975 21.5304L26.3874 8.73729C25.945 8.29472 25.945 7.57732 26.3874 7.13476L33.1874 0.334756C33.63 -0.107669 34.3474 -0.107669 34.7899 0.334756L48.3899 13.9348C48.5632 14.1079 48.6758 14.3326 48.7107 14.5751L50.9773 30.4418C50.9811 30.4636 50.9799 30.4844 50.9786 30.5056C50.978 30.5163 50.9773 30.5271 50.9773 30.5381C50.9802 30.5853 50.9802 30.6326 50.9773 30.6798C50.971 30.77 50.9534 30.859 50.9252 30.945C50.914 30.9866 50.9 31.0276 50.8833 31.0674C50.8308 31.1874 50.758 31.2974 50.6679 31.3926L50.66 31.404L46.9359 35.1304L58.9333 47.1278L61.5287 44.5291C61.7031 44.3536 61.93 44.2398 62.1751 44.2052C62.7949 44.118 63.3681 44.5496 63.4553 45.1694ZM34 2.73289L28.8025 7.93036L41.6013 20.7291L48.2641 27.392L46.5324 15.2653L34 2.73289ZM48.2641 30.597L40.8 23.1329L37.8692 26.0637L45.3333 33.5278L48.2641 30.597ZM52.9346 56.3316L51.1371 58.1291L63.2638 59.8608L61.5321 47.7342L59.7346 49.5316C59.292 49.9741 58.5746 49.9741 58.1321 49.5316L44.5321 35.9316L37.8692 29.2688L39.6009 41.3954L52.9346 54.7291C53.377 55.1717 53.377 55.8891 52.9346 56.3316ZM0 65.7304H68V67.997H0V65.7304ZM17 15.8637C8.86295 15.8637 2.26666 22.46 2.26666 30.597C2.27601 38.7301 8.86691 45.321 17 45.3304C25.137 45.3304 31.7333 38.7341 31.7333 30.597C31.7333 22.46 25.137 15.8637 17 15.8637ZM17 43.0637C10.1149 43.0637 4.53333 37.4822 4.53333 30.597C4.5414 23.7153 10.1183 18.1384 17 18.1304C23.8851 18.1304 29.4667 23.7119 29.4667 30.597C29.4667 37.4822 23.8851 43.0637 17 43.0637ZM11.3333 24.9304H13.6V27.197H11.3333V24.9304ZM22.6667 24.9304H20.4V27.197H22.6667V24.9304ZM8.7346 36.2875L7.13206 34.6838C12.5859 29.2435 21.4141 29.2435 26.8679 34.6838L25.2654 36.2875C20.6979 31.7289 13.3021 31.7289 8.7346 36.2875Z" fill="#F11F60"/>
</svg>
