<svg width="194" height="349" viewBox="0 0 194 349" fill="none" xmlns="http://www.w3.org/2000/svg">
<path d="M37 167.427C37 134.29 59.3357 92.5025 86.8882 74.0925L157.033 27.223C175.402 14.9497 190.292 22.9088 190.292 45.0002V185.888C190.292 219.025 167.956 260.812 140.404 279.222L86.8882 314.98C59.3357 333.39 37 321.452 37 288.314V167.427Z" fill="#DFD8D8"/>
<g filter="url(#filter0_d)">
<path d="M40.24 167.427C40.24 134.29 62.5757 92.5025 90.1282 74.0925L160.273 27.223C178.642 14.9497 193.532 22.9088 193.532 45.0002V185.888C193.532 219.025 171.196 260.812 143.644 279.222L90.1282 314.98C62.5757 333.39 40.24 321.452 40.24 288.314V167.427Z" fill="#F8F8F8"/>
</g>
<g clip-path="url(#clip0)">
<path fill-rule="evenodd" clip-rule="evenodd" d="M163.327 135.132C163.36 135.276 163.377 135.432 163.377 135.595V161.064C163.377 161.391 163.31 161.741 163.183 162.079C163.056 162.416 162.873 162.729 162.654 162.986L146.077 182.415V206.81C146.077 207.473 145.804 208.204 145.357 208.73L110.756 249.283C110.677 249.375 110.59 249.449 110.504 249.526C110.472 249.554 110.441 249.592 110.407 249.619C110.165 249.805 109.911 249.914 109.669 249.936C109.629 249.939 109.593 249.926 109.555 249.924C109.476 249.921 109.393 249.924 109.318 249.901L74.7236 239.076C74.5038 239.008 74.3212 238.852 74.1942 238.624C74.0672 238.395 74.0002 238.103 74 237.776V161.37C74 161.202 74.018 161.032 74.0504 160.86C74.0612 160.802 74.0864 160.743 74.1008 160.683C74.1278 160.574 74.153 160.464 74.1926 160.356C74.2196 160.284 74.2592 160.218 74.2916 160.149C74.333 160.057 74.3708 159.964 74.4194 159.878C74.4608 159.807 74.5148 159.744 74.5616 159.678C74.6138 159.599 74.6606 159.519 74.72 159.449L74.7218 159.449L92.0198 139.173C92.2388 138.917 92.4871 138.724 92.7398 138.616C92.9925 138.507 93.2408 138.486 93.4598 138.554L110.758 143.966L110.761 143.965C110.819 143.986 110.868 144.024 110.92 144.054C110.967 144.081 111.019 144.1 111.06 144.133C111.111 144.179 111.147 144.24 111.19 144.296C111.22 144.339 111.262 144.369 111.287 144.419C111.328 144.494 111.352 144.582 111.381 144.667C111.395 144.714 111.42 144.752 111.431 144.803C111.464 144.947 111.481 145.103 111.481 145.266V192.989L125.896 176.093V151.696C125.896 151.534 125.914 151.361 125.946 151.192C125.959 151.131 125.982 151.072 125.997 151.012C126.025 150.903 126.051 150.792 126.09 150.684C126.117 150.612 126.157 150.547 126.187 150.478C126.231 150.385 126.267 150.293 126.317 150.206C126.358 150.135 126.411 150.073 126.457 150.007C126.511 149.928 126.558 149.847 126.616 149.778L126.618 149.778L143.917 129.502C144.136 129.245 144.385 129.052 144.637 128.944C144.89 128.835 145.138 128.814 145.357 128.883L162.655 134.295C162.717 134.315 162.763 134.353 162.817 134.383C162.862 134.41 162.915 134.429 162.956 134.463C163.006 134.508 163.042 134.569 163.086 134.625C163.118 134.667 163.158 134.699 163.183 134.748C163.224 134.821 163.248 134.911 163.276 134.996C163.293 135.042 163.316 135.081 163.327 135.132ZM160.494 161.229V140.049L154.44 147.144L146.077 156.946V178.126L160.495 161.228L160.494 161.229ZM143.196 206.973V185.78L134.97 195.372L111.48 222.753V244.146L143.196 206.973ZM76.8836 163.346V235.463L108.596 245.383V223.995L92.0288 219.021L92.0234 219.019L92.0162 219.017C91.9604 218.999 91.9136 218.959 91.8614 218.93C91.8164 218.903 91.7642 218.889 91.7246 218.854L91.721 218.849C91.6742 218.811 91.6418 218.753 91.6022 218.705C91.5662 218.658 91.523 218.623 91.4942 218.57L91.4924 218.564C91.46 218.509 91.4402 218.433 91.4168 218.365C91.3934 218.305 91.3628 218.253 91.3484 218.185V218.183C91.3304 218.102 91.3268 218.011 91.3196 217.924C91.3124 217.857 91.298 217.794 91.298 217.724V217.719V167.856L82.937 165.237L76.8836 163.348V163.346ZM92.7416 142.619L78.329 159.51L92.738 164.018L107.149 147.125L92.738 142.62L92.7416 142.619ZM100.237 206.168L108.598 196.368V149.72L102.544 156.815L94.1816 166.617V213.265L100.237 206.168ZM144.637 132.948L130.227 149.838L144.637 154.345L159.046 137.454L144.637 132.948ZM143.196 158.185L134.833 155.568L128.779 153.675V174.854L137.14 177.469L143.196 179.364V158.185ZM110.036 220.159L131.173 195.515L141.739 183.2L127.339 178.695L110.76 198.128L95.6486 215.838L110.036 220.159Z" fill="#FF2D20"/>
</g>
<defs>
<filter id="filter0_d" x="0.23999" y="0.456055" width="193.292" height="342.175" filterUnits="userSpaceOnUse" color-interpolation-filters="sRGB">
<feFlood flood-opacity="0" result="BackgroundImageFix"/>
<feColorMatrix in="SourceAlpha" type="matrix" values="0 0 0 0 0 0 0 0 0 0 0 0 0 0 0 0 0 0 127 0"/>
<feOffset dx="-20" dy="-1"/>
<feGaussianBlur stdDeviation="10"/>
<feColorMatrix type="matrix" values="0 0 0 0 0 0 0 0 0 0 0 0 0 0 0 0 0 0 0.1 0"/>
<feBlend mode="normal" in2="BackgroundImageFix" result="effect1_dropShadow"/>
<feBlend mode="normal" in="SourceGraphic" in2="effect1_dropShadow" result="shape"/>
</filter>
<clipPath id="clip0">
</clipPath>
</defs>
</svg>
