<svg width="195" height="349" viewBox="0 0 195 349" fill="none" xmlns="http://www.w3.org/2000/svg">
<path d="M37.9995 167.427C37.9995 134.29 60.3352 92.5025 87.8877 74.0925L158.033 27.223C176.401 14.9497 191.292 22.9088 191.292 45.0002V185.888C191.292 219.025 168.956 260.812 141.404 279.222L87.8877 314.98C60.3352 333.39 37.9995 321.452 37.9995 288.314V167.427Z" fill="#DFD8D8"/>
<g filter="url(#filter0_d)">
<path d="M40.7595 167.427C40.7595 134.29 63.0952 92.5025 90.6476 74.0925L160.793 27.223C179.161 14.9497 194.052 22.9088 194.052 45.0002V185.888C194.052 219.025 171.716 260.812 144.163 279.222L90.6477 314.98C63.0952 333.39 40.7595 321.452 40.7595 288.314V167.427Z" fill="#FBFBFB"/>
</g>
<g clip-path="url(#clip0)">
<path d="M164.084 183.493C159.117 187.148 155.268 190.727 152.04 194.925C151.109 196.109 149.619 197.253 149.495 198.834C149.991 199.079 150.053 200.049 150.488 200.575C151.234 201.567 152.537 202.68 153.716 202.871C155.02 203.122 156.324 203.373 157.689 203.42C160.11 203.44 162.842 202.439 165.201 202.506C166.567 202.552 167.932 202.914 169.298 203.039C169.981 203.14 170.415 203.825 171.285 203.548V203.314C170.85 202.943 170.726 202.022 170.292 201.573C169.671 201.266 169.05 201.039 168.429 200.733C166.629 199.064 164.394 198.119 161.973 197.786C159.987 197.589 155.641 198.578 154.834 196.302C154.834 196.302 154.771 196.272 154.71 196.241C156.075 195.037 157.689 193.173 158.993 191.702C161.104 189.378 163.028 188.059 165.201 185.687C166.194 184.612 167.188 183.459 168.181 182.306V181.602C167.064 181.051 166.257 179.793 165.077 179.368C161.911 178.354 158.434 177.659 154.834 177.605C152.909 177.518 150.426 178.406 148.377 178.648C147.633 178.75 146.391 179.469 145.956 179.019C144.838 178.156 144.218 176.364 143.411 174.949C141.611 172.027 139.872 168.59 138.32 165.244C137.203 163.05 136.52 160.523 135.154 158.755C128.76 150.363 121.807 147.64 111.13 147.932C108.832 148.052 106.101 149.444 103.183 150.823C101.632 151.935 100.079 152.97 98.5273 154.082C97.5339 154.296 96.5405 153.573 95.6713 153.535C92.1334 153.434 83.007 154.335 80.3997 164.394C78.7234 170.764 82.8832 172.579 84.3105 174.066C85.3667 175.054 86.7319 176.041 87.4769 177.503C87.9115 178.499 88.0353 179.813 88.4699 180.887C89.4637 183.566 90.3943 186.686 91.6985 188.893C92.3814 190.011 93.1261 191.161 93.9953 191.98C94.492 192.459 95.3609 192.184 95.5475 193.449C94.6786 195.68 94.6162 198.075 94.1191 200.412C91.8844 210.967 92.7539 221.251 95.9197 225.315C96.9127 226.508 99.272 229.002 102.438 224.929C105.232 221.377 104.611 217.394 105.418 212.864C105.605 211.781 105.48 211.251 105.853 210.34V210.497C106.722 212.02 107.591 213.466 108.398 215.037C110.322 217.392 113.674 218.81 116.468 219.327C117.958 219.591 119.138 221.111 121 220.542V220.307L120.876 220.403C120.503 219.985 119.944 220.101 119.448 219.934C118.331 219.384 117.089 218.615 116.22 217.717C113.613 215.336 111.315 212.25 109.267 208.815C108.274 207.152 107.404 205.159 106.598 203.354C106.225 202.7 106.225 201.293 105.604 201.3C104.673 203.735 103.307 206.27 102.624 208.906C101.445 213.174 101.321 217.416 100.886 222.051C100.638 222.321 100.762 222.147 100.638 222.399C98.6515 223.297 97.9685 221.24 97.2231 219.621C95.3605 215.496 95.0501 206.816 96.6647 199.163C97.0993 197.186 98.9619 190.594 98.2169 189.601C97.8444 188.401 96.6023 188.493 95.9197 187.844C95.1129 186.976 94.2433 185.767 93.6849 184.552C92.1948 181.315 91.4498 177.036 89.8359 173.894C89.0908 172.431 87.7877 171.319 86.7319 170.252C85.5526 169.045 84.2488 168.558 83.3174 166.77C83.0074 166.148 82.5724 165.073 83.0691 163.753C83.1933 163.032 83.4413 162.607 83.9383 162.07C84.7454 160.589 87.0427 159.922 87.8491 159.772C90.1463 159.182 92.0706 158.802 93.9953 158.968C94.8642 159.083 95.7955 159.855 96.9127 159.389L98.2165 158.389C100.203 157.411 102.438 155.306 104.3 154.581C107.591 153.385 110.57 153.055 113.24 153.119C121.373 153.371 128.077 157.458 132.609 165.01C133.354 166.237 133.664 167.643 134.347 168.996C135.651 171.829 137.265 174.502 138.568 177.257C139.872 179.933 141.114 182.735 142.976 184.357C143.908 185.285 147.632 183.288 149.308 182.862C150.55 182.613 152.475 181.763 153.592 181.766C155.703 181.788 157.813 182.047 159.8 182.321C160.793 182.498 163.897 182.072 164.084 183.493Z" fill="#00546B"/>
<path d="M100.762 164.102C99.7064 164.912 98.9617 165.64 98.2167 166.446V166.603L98.3408 166.508C98.8379 167.378 99.7064 167.572 100.327 168.191C100.824 169.061 101.258 169.98 101.755 170.85C101.817 170.724 101.879 170.599 101.879 170.599C102.749 169.149 103.183 167.564 103.183 165.686C102.81 165.425 102.748 164.925 102.438 164.616C102.066 164.118 101.258 164.347 100.762 164.102Z" fill="#00546B"/>
</g>
<defs>
<filter id="filter0_d" x="0.75946" y="0.456055" width="193.292" height="342.175" filterUnits="userSpaceOnUse" color-interpolation-filters="sRGB">
<feFlood flood-opacity="0" result="BackgroundImageFix"/>
<feColorMatrix in="SourceAlpha" type="matrix" values="0 0 0 0 0 0 0 0 0 0 0 0 0 0 0 0 0 0 127 0"/>
<feOffset dx="-20" dy="-1"/>
<feGaussianBlur stdDeviation="10"/>
<feColorMatrix type="matrix" values="0 0 0 0 0 0 0 0 0 0 0 0 0 0 0 0 0 0 0.1 0"/>
<feBlend mode="normal" in2="BackgroundImageFix" result="effect1_dropShadow"/>
<feBlend mode="normal" in="SourceGraphic" in2="effect1_dropShadow" result="shape"/>
</filter>
<clipPath id="clip0">
</clipPath>
</defs>
</svg>
