<svg width="1448" height="738" viewBox="0 0 1448 738" fill="none" xmlns="http://www.w3.org/2000/svg">
<rect width="1448" height="738" fill="#FFF7F1"/>
<mask id="mask0" mask-type="alpha" maskUnits="userSpaceOnUse" x="0" y="0" width="1448" height="738">
<rect width="1448" height="738" fill="#FFF7F1"/>
</mask>
<g mask="url(#mask0)">
<path fill-rule="evenodd" clip-rule="evenodd" d="M337.052 -170.788C402.965 -168.422 471.883 -197.341 530.022 -166.196C591.305 -133.366 625.542 -67.2982 651.001 -2.60432C677.849 65.6191 705.503 142.21 678.158 210.236C651.268 277.131 577.944 310.426 512.776 341.266C457.697 367.331 397.579 378.703 337.052 371.66C281.657 365.214 237.351 330.868 188.725 303.559C132.115 271.768 57.1901 258.122 29.9455 199.189C2.16018 139.086 33.9771 70.4726 51.4421 6.60323C69.858 -60.7439 74.4379 -143.582 133.749 -180.42C192.827 -217.113 267.551 -173.283 337.052 -170.788Z" fill="#FDF0E7" fill-opacity="0.66"/>
<path fill-rule="evenodd" clip-rule="evenodd" d="M1259.68 215.006C1321.08 215.544 1379.63 248.343 1421.38 293.363C1458.96 333.883 1449.61 396.719 1474.12 446.249C1505.38 509.439 1595.31 551.644 1583.56 621.157C1572.15 688.61 1481.95 705.723 1424.07 742.192C1370.83 775.74 1322 816.448 1259.68 825.224C1190.55 834.96 1115.9 832.487 1057.81 793.774C998.661 754.357 955.341 687.967 947.671 617.302C940.546 551.659 991.895 497.909 1019.17 437.777C1042.61 386.104 1054.28 329.071 1095.91 290.513C1141.12 248.64 1198.06 214.467 1259.68 215.006Z" fill="#FDF0E7" fill-opacity="0.66"/>
</g>
</svg>
