<svg width="194" height="349" viewBox="0 0 194 349" fill="none" xmlns="http://www.w3.org/2000/svg">
<path d="M37 167.349C37 134.212 59.3357 92.4244 86.8882 74.0144L157.033 27.1449C175.402 14.8716 190.292 22.8307 190.292 44.9221V185.81C190.292 218.947 167.956 260.734 140.404 279.144L86.8882 314.902C59.3357 333.312 37 321.373 37 288.236V167.349Z" fill="#DFD8D8"/>
<g filter="url(#filter0_d)">
<path d="M40.24 167.349C40.24 134.212 62.5757 92.4244 90.1282 74.0144L160.273 27.1449C178.642 14.8716 193.532 22.8307 193.532 44.9221V185.81C193.532 218.947 171.196 260.734 143.644 279.144L90.1282 314.902C62.5757 333.312 40.24 321.373 40.24 288.236V167.349Z" fill="#F8F8F8"/>
</g>
<g clip-path="url(#clip0)">
<path d="M159.249 158.762C155.42 161.21 152.104 164.649 149.324 168.409C148.297 166.08 147.27 164.127 147.099 162.292C146.907 160.157 146.671 158.927 146.907 156.084C147.142 153.24 148.211 148.743 148.211 148.429C148.19 148.161 147.976 146.917 145.773 148.276C143.57 149.635 141.666 151.494 141.452 152.475C141.238 153.456 140.81 155.669 140.532 157.85C140.147 161.038 136.125 174.01 133.836 180.938C133.088 179.279 132.446 177.804 132.318 176.381C132.125 174.246 131.89 173.016 132.125 170.173C132.361 167.329 133.43 162.832 133.43 162.519C133.409 162.25 133.195 161.006 130.992 162.365C128.788 163.724 126.885 165.583 126.671 166.564C126.457 167.545 126.221 169.699 125.751 171.939C125.301 174.165 119.954 194.962 118.563 200.382C117.857 203.147 117.237 205.387 116.788 206.924C116.339 208.46 116.766 207.031 116.724 207.183C116.339 208.492 116.125 209.222 116.125 209.222V209.254C115.825 210.226 115.504 211.18 115.354 211.275C115.247 211.342 115.034 209.378 115.397 206.266C116.189 199.719 118.114 189.072 118.093 188.741C118.093 188.584 118.456 186.694 116.852 186.86C115.29 187 114.734 188.761 114.606 188.842C114.477 188.923 114.37 189.491 114.37 189.491C114.37 189.491 116.103 177.776 111.055 180.961C107.889 182.959 103.525 190.757 101.365 196.726C99.9956 198.687 97.0864 202.841 94.0061 207.26C92.8296 208.943 91.6103 210.715 90.4552 212.352L90.2201 212.124C84.1022 206.427 72.7863 206.798 73.2569 193.654C73.4281 188.877 74.5404 175.86 94.9905 148.042C111.74 125.253 125.152 120.143 127.483 126.13C130.799 134.692 120.317 161.109 102.905 174.947C96.274 180.228 92.787 178.668 91.9102 177.811C90.9904 176.919 90.862 176.937 90.5198 177.435C89.9636 178.224 90.3059 179.325 90.5198 179.973C91.0332 181.623 93.1723 183.783 96.8087 183.243C99.9958 182.768 107.782 178.701 117.194 167.435C127.74 154.797 135.976 132.993 133.559 120.636C131.099 108.056 115.098 113.514 99.9746 130.922C90.9688 141.304 81.2144 154.791 74.1982 168.838C65.8556 185.508 64.5294 196.309 65.0856 200.094C67.0324 213.625 80.915 214.486 86.4766 218.089C86.1986 218.484 85.9419 218.865 85.7066 219.202C82.9257 222.962 72.3371 237.759 69.6846 248.018C66.6899 259.621 70.1552 264.423 72.4655 263.905C79.6101 262.312 86.9259 252.463 90.8832 241.349C94.8189 230.248 94.3486 219.358 92.5303 215.398L92.4659 215.251L94.6478 211.994C96.0598 209.881 97.4503 207.875 98.6693 206.135C97.985 209.292 97.4928 212.831 97.2363 217.693C96.9369 223.397 98.477 229.569 100.509 231.107C101.408 231.762 102.477 231.119 103.14 230.701C105.493 229.216 106.563 225.689 107.739 221.532C109.194 216.446 110.477 210.811 110.477 210.811C110.477 210.811 108.873 224.89 113.258 222.123C114.863 221.111 116.467 217.059 117.194 215.033V215.065C117.194 215.065 117.237 214.944 117.323 214.67C117.412 214.419 117.498 214.167 117.579 213.913V213.851C118.221 211.816 119.654 207.183 121.793 199.661C124.553 189.96 127.205 178.322 127.205 178.322C127.205 178.322 127.462 180.604 128.253 184.116C128.724 186.201 129.751 188.153 130.542 190.192C129.9 191.913 129.515 192.909 129.515 192.909L129.537 192.926C129.024 194.253 128.446 195.683 127.847 197.126C125.665 202.326 123.055 208.328 122.713 209.797C122.307 211.526 122.392 212.569 123.184 212.947C123.761 213.21 124.788 212.687 125.879 211.873C127.847 210.443 129.216 208.859 129.901 207.988C130.97 206.749 132.189 205.134 133.366 203.138C135.505 199.47 136.81 195.357 136.682 191.051C136.617 188.678 136.083 186.634 135.419 184.797C135.612 184.268 135.805 183.739 135.997 183.179C139.377 173.808 141.986 164.202 141.986 164.202C141.986 164.202 142.243 166.484 143.035 169.996C143.441 171.776 144.254 173.488 144.981 175.223C141.815 181.012 139.826 186.654 139.141 189.969C137.879 196.092 138.863 197.884 140.724 197.274C141.558 196.998 142.757 195.678 143.655 194.548C144.767 193.313 146.115 191.554 147.356 189.424C149.495 185.755 151.548 181.232 151.441 176.944C151.377 174.979 151.014 173.234 150.522 171.665C153.217 168.335 156.703 165.195 161.132 163.184C170.651 158.808 172.533 166.331 172.17 170.195C171.806 174.06 169.817 177.32 169.153 178.365C168.49 179.379 168.276 179.734 168.34 180.132C168.426 180.736 168.725 180.515 169.303 180.026C170.094 179.338 174.308 173.891 174.48 167.078C174.736 158.297 169.153 152.419 159.249 158.762ZM85.8349 241.338C82.6904 248.367 78.2625 253.072 76.38 252.63C74.3479 252.189 75.1392 244.263 79.0112 236.462C81.3642 231.718 84.4231 226.78 86.4339 223.663C86.8831 222.972 87.5676 221.945 88.3804 220.711C88.5088 220.505 88.5944 220.388 88.5944 220.388C88.7441 220.168 88.9152 219.904 89.0864 219.639C90.5196 226.381 89.1505 233.95 85.8349 241.338ZM108.83 203.923C107.739 208.528 105.429 220.044 104.039 220.357C102.841 220.643 102.114 213.488 103.803 204.901C104.659 200.569 106.477 194.91 107.547 192.48C109.28 188.567 111.162 186.439 111.633 187.301C112.189 188.455 109.515 201.047 108.83 203.923ZM127.804 205.237C127.334 205.879 126.906 206.399 126.713 206.333C126.564 206.302 126.906 205.616 126.906 205.616C126.906 205.616 129.28 200.389 130.221 198.072C130.756 196.732 131.398 195.168 132.082 193.42V193.796C132.082 198.308 129.13 203.178 127.804 205.237ZM142.435 191.117C142.093 190.957 142.136 189.771 143.291 185.407C143.741 183.682 144.767 180.622 146.543 177.214C146.756 178.019 146.885 178.846 146.863 179.706C146.842 185.36 144.104 189.187 142.435 191.117Z" fill="#CF649A"/>
</g>
<defs>
<filter id="filter0_d" x="0.240021" y="0.37793" width="193.292" height="342.175" filterUnits="userSpaceOnUse" color-interpolation-filters="sRGB">
<feFlood flood-opacity="0" result="BackgroundImageFix"/>
<feColorMatrix in="SourceAlpha" type="matrix" values="0 0 0 0 0 0 0 0 0 0 0 0 0 0 0 0 0 0 127 0"/>
<feOffset dx="-20" dy="-1"/>
<feGaussianBlur stdDeviation="10"/>
<feColorMatrix type="matrix" values="0 0 0 0 0 0 0 0 0 0 0 0 0 0 0 0 0 0 0.1 0"/>
<feBlend mode="normal" in2="BackgroundImageFix" result="effect1_dropShadow"/>
<feBlend mode="normal" in="SourceGraphic" in2="effect1_dropShadow" result="shape"/>
</filter>
<clipPath id="clip0">
<rect width="129.501" height="120.327" fill="white" transform="matrix(0.845728 -0.533615 0 1 65 149.104)"/>
</clipPath>
</defs>
</svg>
