<svg width="179" height="180" viewBox="0 0 179 180" fill="none" xmlns="http://www.w3.org/2000/svg">
<g filter="url(#filter0_i)">
<circle cx="89.1932" cy="90.0491" r="74.1932" stroke="#F5F5F5" stroke-width="30"/>
</g>
<path d="M178.386 90.0491C178.386 81.7648 171.671 75.0491 163.386 75.0491C155.102 75.0491 148.386 81.7648 148.386 90.0491H178.386ZM89.1932 30.856C97.4774 30.856 104.193 24.1402 104.193 15.856C104.193 7.57169 97.4774 0.855957 89.1932 0.855957V30.856ZM148.386 90.0491C148.386 122.741 121.885 149.242 89.1932 149.242V179.242C138.453 179.242 178.386 139.309 178.386 90.0491H148.386ZM89.1932 149.242C56.5017 149.242 30 122.741 30 90.0491H0C0 139.309 39.9331 179.242 89.1932 179.242V149.242ZM30 90.0491C30 57.3576 56.5017 30.856 89.1932 30.856V0.855957C39.9331 0.855957 0 40.7891 0 90.0491H30Z" fill="url(#paint0_linear)"/>
<defs>
<filter id="filter0_i" x="0" y="0.855957" width="178.386" height="181.386" filterUnits="userSpaceOnUse" color-interpolation-filters="sRGB">
<feFlood flood-opacity="0" result="BackgroundImageFix"/>
<feBlend mode="normal" in="SourceGraphic" in2="BackgroundImageFix" result="shape"/>
<feColorMatrix in="SourceAlpha" type="matrix" values="0 0 0 0 0 0 0 0 0 0 0 0 0 0 0 0 0 0 127 0" result="hardAlpha"/>
<feOffset dy="3"/>
<feGaussianBlur stdDeviation="5"/>
<feComposite in2="hardAlpha" operator="arithmetic" k2="-1" k3="1"/>
<feColorMatrix type="matrix" values="0 0 0 0 0 0 0 0 0 0 0 0 0 0 0 0 0 0 0.25 0"/>
<feBlend mode="normal" in2="shape" result="effect1_innerShadow"/>
</filter>
<linearGradient id="paint0_linear" x1="89.1932" y1="15.856" x2="176.599" y2="154.079" gradientUnits="userSpaceOnUse">
<stop stop-color="#F7DD7F"/>
<stop offset="1" stop-color="#ECCE61"/>
</linearGradient>
</defs>
</svg>
